<svg width="200" height="83" viewBox="0 0 200 83" fill="none" xmlns="http://www.w3.org/2000/svg">
<rect width="200" height="83" fill="#FFD300"/>
<path d="M35.484 50L37.859 34.825H32.809L33.334 31.5H47.184L46.659 34.825H41.584L39.184 50H35.484ZM49.1184 50L52.0434 31.5H59.1184C60.6184 31.5 61.8267 31.85 62.7434 32.55C63.66 33.2333 64.1184 34.4167 64.1184 36.1C64.1184 36.5667 64.0684 37.1 63.9684 37.7C63.835 38.5833 63.6267 39.3167 63.3434 39.9C63.06 40.4833 62.735 40.95 62.3684 41.3C62.0017 41.65 61.635 41.925 61.2684 42.125C60.9017 42.3083 60.585 42.45 60.3184 42.55L62.5684 50H58.7934L56.9184 43.125C56.5184 43.125 56.0267 43.125 55.4434 43.125C54.86 43.1083 54.3517 43.1 53.9184 43.1L52.8184 50H49.1184ZM54.3684 40.175H57.4934C58.31 40.175 58.935 39.9833 59.3684 39.6C59.8017 39.2 60.0934 38.4833 60.2434 37.45C60.2767 37.3 60.2934 37.1583 60.2934 37.025C60.31 36.875 60.3184 36.7417 60.3184 36.625C60.3184 35.9583 60.1434 35.4917 59.7934 35.225C59.4434 34.9583 58.9684 34.825 58.3684 34.825H55.2184L54.3684 40.175ZM66.4637 50L75.2637 31.5H79.9137L82.7637 50H78.9137L78.3887 46.125H72.0637L70.2637 50H66.4637ZM73.4637 42.8H78.0137L77.0637 34.7L73.4637 42.8ZM87.3459 50L90.2709 31.5H93.2459L99.0459 43.7L100.996 31.5H104.696L101.746 50H98.7959L92.9959 37.775L91.0459 50H87.3459ZM113.28 50.15C111.98 50.15 110.797 50.0917 109.73 49.975C108.68 49.8417 107.83 49.7 107.18 49.55L107.63 46.625C108.38 46.6917 109.255 46.7417 110.255 46.775C111.272 46.8083 112.255 46.825 113.205 46.825C114.272 46.825 115.063 46.7 115.58 46.45C116.113 46.2 116.438 45.7167 116.555 45L116.655 44.35C116.672 44.25 116.68 44.1667 116.68 44.1C116.697 44.0167 116.705 43.9333 116.705 43.85C116.705 43.3833 116.538 43.05 116.205 42.85C115.872 42.65 115.338 42.55 114.605 42.55H113.13C111.73 42.55 110.638 42.2 109.855 41.5C109.088 40.7833 108.705 39.8333 108.705 38.65C108.705 38.3167 108.73 37.9667 108.78 37.6L109.03 36.1C109.297 34.3333 110.005 33.1 111.155 32.4C112.305 31.7 113.797 31.35 115.63 31.35C116.43 31.35 117.338 31.4083 118.355 31.525C119.388 31.625 120.363 31.775 121.28 31.975L120.805 34.9C120.222 34.85 119.588 34.8083 118.905 34.775C118.222 34.7417 117.555 34.725 116.905 34.725C116.255 34.7083 115.68 34.7 115.18 34.7C114.43 34.7 113.822 34.825 113.355 35.075C112.888 35.325 112.597 35.8083 112.48 36.525L112.38 37.175C112.363 37.275 112.347 37.375 112.33 37.475C112.33 37.5583 112.33 37.6417 112.33 37.725C112.33 38.1917 112.463 38.5333 112.73 38.75C112.997 38.95 113.422 39.05 114.005 39.05H115.58C117.13 39.05 118.305 39.4083 119.105 40.125C119.905 40.8417 120.305 41.7833 120.305 42.95C120.305 43.25 120.28 43.5833 120.23 43.95L119.98 45.675C119.73 47.225 119.097 48.3583 118.08 49.075C117.063 49.7917 115.463 50.15 113.28 50.15ZM124.011 50L126.936 31.5H130.636L127.711 50H124.011ZM137.422 50L139.797 34.825H134.747L135.272 31.5H149.122L148.597 34.825H143.522L141.122 50H137.422ZM155.313 50.15C154.863 50.15 154.379 50.1 153.863 50C153.363 49.8833 152.904 49.6833 152.488 49.4C152.071 49.1 151.754 48.675 151.538 48.125C151.321 47.575 151.288 46.8583 151.438 45.975L153.063 35.75C153.229 34.6833 153.546 33.8417 154.013 33.225C154.496 32.5917 155.079 32.15 155.763 31.9C156.446 31.6333 157.196 31.5 158.013 31.5C159.263 31.5 160.504 31.5333 161.738 31.6C162.988 31.65 164.263 31.725 165.563 31.825L165.063 34.925H158.538C157.938 34.925 157.488 35.0667 157.188 35.35C156.904 35.6333 156.713 36.075 156.613 36.675L156.238 39.075L163.163 39.3L162.688 42.225L155.713 42.425L155.313 45C155.213 45.6167 155.288 46.05 155.538 46.3C155.804 46.55 156.221 46.675 156.788 46.675H163.213L162.738 49.775C161.554 49.875 160.354 49.9583 159.138 50.025C157.921 50.1083 156.646 50.15 155.313 50.15ZM168.156 50L171.081 31.5H174.781L171.856 50H168.156Z" fill="black"/>
</svg>
