<svg width="54" height="12" viewBox="0 0 54 12" fill="none" xmlns="http://www.w3.org/2000/svg">
<path d="M2.58045 2.525V4.655H6.01545V6.635H2.58045V8.945H6.46545V11H0.0154493V0.47H6.46545V2.525H2.58045ZM14.7307 2.54C15.7107 2.54 16.4907 2.86 17.0707 3.5C17.6607 4.13 17.9557 5 17.9557 6.11V11H15.4057V6.455C15.4057 5.895 15.2607 5.46 14.9707 5.15C14.6807 4.84 14.2907 4.685 13.8007 4.685C13.3107 4.685 12.9207 4.84 12.6307 5.15C12.3407 5.46 12.1957 5.895 12.1957 6.455V11H9.63068V2.63H12.1957V3.74C12.4557 3.37 12.8057 3.08 13.2457 2.87C13.6857 2.65 14.1807 2.54 14.7307 2.54ZM25.9031 8.825V11H24.5981C23.6681 11 22.9431 10.775 22.4231 10.325C21.9031 9.865 21.6431 9.12 21.6431 8.09V4.76H20.6231V2.63H21.6431V0.59H24.2081V2.63H25.8881V4.76H24.2081V8.12C24.2081 8.37 24.2681 8.55 24.3881 8.66C24.5081 8.77 24.7081 8.825 24.9881 8.825H25.9031ZM31.3969 4.025C31.6969 3.565 32.0719 3.205 32.5219 2.945C32.9719 2.675 33.4719 2.54 34.0219 2.54V5.255H33.3169C32.6769 5.255 32.1969 5.395 31.8769 5.675C31.5569 5.945 31.3969 6.425 31.3969 7.115V11H28.8319V2.63H31.3969V4.025ZM36.2379 6.8C36.2379 5.94 36.3979 5.185 36.7179 4.535C37.0479 3.885 37.4929 3.385 38.0529 3.035C38.6129 2.685 39.2379 2.51 39.9279 2.51C40.5179 2.51 41.0329 2.63 41.4729 2.87C41.9229 3.11 42.2679 3.425 42.5079 3.815V2.63H45.0729V11H42.5079V9.815C42.2579 10.205 41.9079 10.52 41.4579 10.76C41.0179 11 40.5029 11.12 39.9129 11.12C39.2329 11.12 38.6129 10.945 38.0529 10.595C37.4929 10.235 37.0479 9.73 36.7179 9.08C36.3979 8.42 36.2379 7.66 36.2379 6.8ZM42.5079 6.815C42.5079 6.175 42.3279 5.67 41.9679 5.3C41.6179 4.93 41.1879 4.745 40.6779 4.745C40.1679 4.745 39.7329 4.93 39.3729 5.3C39.0229 5.66 38.8479 6.16 38.8479 6.8C38.8479 7.44 39.0229 7.95 39.3729 8.33C39.7329 8.7 40.1679 8.885 40.6779 8.885C41.1879 8.885 41.6179 8.7 41.9679 8.33C42.3279 7.96 42.5079 7.455 42.5079 6.815ZM50.9935 4.025C51.2935 3.565 51.6685 3.205 52.1185 2.945C52.5685 2.675 53.0685 2.54 53.6185 2.54V5.255H52.9135C52.2735 5.255 51.7935 5.395 51.4735 5.675C51.1535 5.945 50.9935 6.425 50.9935 7.115V11H48.4285V2.63H50.9935V4.025Z" fill="white"/>
</svg>
