<svg width="669" height="415" viewBox="0 0 669 415" fill="none" xmlns="http://www.w3.org/2000/svg">
<g clip-path="url(#clip0_35_1056)">
<path d="M287.527 102.055C175.528 107.027 101.787 151.073 86.0122 195.143C70.3746 238.916 80.2282 287.852 105.48 327.957C130.731 368.069 170.155 400.033 213.504 425.267C247.392 444.974 284.974 461.233 325.289 465.076C364.678 468.828 404.145 460.559 442.481 451.675C491.775 440.252 541.559 427.412 584.521 403.156C619.567 383.38 651.664 350.014 644.433 313.805C638.255 282.94 605.248 260.223 599.67 229.275C591.864 185.926 639.745 149.74 646.155 106.209C653.635 55.4466 582.345 3.19089 543.084 0.909332C397.427 -7.53461 339.71 99.7431 287.527 102.055Z" fill="#171717"/>
<path d="M669 8.71849V406.282C669 411.093 665.003 415 660.08 415H8.92C3.99704 415 0 411.093 0 406.282V8.71849C0 3.90676 3.99704 0 8.92 0H660.08C665.003 0 669 3.90676 669 8.71849Z" fill="white"/>
<path d="M474.651 93.6816C526.875 150.733 538.069 236.912 496.263 307.462C454.457 378.013 372.304 411.583 295.542 395.94" stroke="#96AFDA"/>
<path d="M372.584 395.05C328.83 404.4 281.714 398.572 240.162 375.18C151.005 324.989 121.005 212.814 173.213 124.847C179.95 113.495 187.729 103.098 196.361 93.7052" stroke="#96AFDA"/>
<path d="M156.317 160.585C160.366 148.612 165.734 136.857 172.471 125.505C224.679 37.538 339.457 6.86684 428.614 57.0582C470.166 80.45 498.868 117.304 512.388 158.897" stroke="#96AFDA"/>
<path d="M194.349 338.755C142.125 281.704 130.931 195.525 172.737 124.975C214.543 54.4244 296.696 20.8542 373.458 36.4971" stroke="#96AFDA"/>
<g opacity="0.999994">
<path d="M296.416 37.3873C340.17 28.0372 387.286 33.8652 428.838 57.257C517.995 107.448 547.995 219.623 495.787 307.59C489.05 318.942 481.271 329.339 472.639 338.732" stroke="#96AFDA"/>
</g>
<path d="M512.683 271.852C508.635 283.825 503.266 295.58 496.529 306.932C444.321 394.899 329.544 425.57 240.386 375.379C198.834 351.987 170.132 315.133 156.612 273.54" stroke="#DAE2F1"/>
<path d="M333.569 133.052L412.503 155.944C412.503 160.194 410.329 181.568 406.007 220.144C401.685 258.694 377.539 288.694 333.569 310.119C289.599 288.694 265.453 258.694 261.131 220.144C256.809 181.568 254.635 160.194 254.635 155.944L333.569 133.052Z" fill="#FFA101"/>
<path d="M333.569 133.052L412.503 155.944C412.503 160.194 410.329 181.568 406.007 220.144C401.685 258.694 377.539 288.694 333.569 310.119C289.599 288.694 265.453 258.694 261.131 220.144C256.809 181.568 254.635 160.194 254.635 155.944L333.569 133.052Z" stroke="#96AFDA" stroke-width="2.90134"/>
<g opacity="0.5">
<path d="M334.863 148.229L399.563 166.922C399.563 171.855 397.777 190.042 394.232 221.51C390.66 252.977 370.888 277.463 334.863 294.942V148.229Z" fill="#4B5770"/>
</g>
<g opacity="0.4">
<path d="M334.864 148.229L399.564 166.922C399.564 171.855 397.778 190.042 394.233 221.51C390.661 252.977 370.889 277.463 334.864 294.942C298.839 277.463 279.067 252.977 275.495 221.51C271.95 190.042 270.164 171.855 270.164 166.922L334.864 148.229Z" fill="#465166"/>
<path d="M334.864 148.229L399.564 166.922C399.564 171.855 397.778 190.042 394.233 221.51C390.661 252.977 370.889 277.463 334.864 294.942C298.839 277.463 279.067 252.977 275.495 221.51C271.95 190.042 270.164 171.855 270.164 166.922L334.864 148.229Z" stroke="#96AFDA" stroke-width="1.45067"/>
</g>
<path d="M314.24 210.349L331.585 227.303L364.699 194.937" stroke="#AFCCFF" stroke-width="10"/>
<path d="M225.89 401.779C222.911 401.779 219.931 401.518 216.988 400.995L215.418 400.716C213.545 400.367 211.743 399.652 210.155 398.606L208.817 397.734C208.193 397.315 207.943 396.531 208.228 395.851L209.352 393.043V391.457L207.158 387.725C207.015 387.481 206.944 387.219 206.944 386.94V385.737C206.944 385.336 207.087 384.953 207.372 384.674C208.228 383.75 208.889 382.843 209.352 381.936C210.155 380.332 210.958 376.374 211.761 374.787C212.564 373.183 214.972 370.009 225.426 367.638C235.863 365.249 255.95 362.494 268.813 361.273C281.658 360.053 284.066 355.066 299.337 347.777C314.591 340.471 335.481 339.564 363.597 341.413C381.651 342.598 399.206 347.795 416.261 357.019C417.599 357.734 419.062 358.222 420.578 358.448L434.85 360.523C438.025 360.994 440.755 362.982 442.129 365.807L449.265 380.489C449.461 380.907 449.568 381.378 449.568 381.849V389.626C449.568 390.986 448.676 392.189 447.374 392.608L420.025 401.465C419.365 401.675 418.687 401.779 418.009 401.779H225.89Z" fill="#FFA101"/>
<path d="M225.89 401.779C222.911 401.779 219.931 401.518 216.988 400.995L215.418 400.716C213.545 400.367 211.743 399.652 210.155 398.606L208.817 397.734C208.193 397.315 207.943 396.531 208.228 395.851L209.352 393.043V391.457L207.158 387.725C207.015 387.481 206.944 387.219 206.944 386.94V385.737C206.944 385.336 207.087 384.953 207.372 384.674C208.228 383.75 208.889 382.843 209.352 381.936C210.155 380.332 210.958 376.374 211.761 374.787C212.564 373.183 214.972 370.009 225.426 367.638C235.863 365.249 255.95 362.494 268.813 361.273C281.658 360.053 284.066 355.066 299.337 347.777C314.591 340.471 335.481 339.564 363.597 341.413C381.651 342.598 399.206 347.795 416.261 357.019C417.599 357.734 419.062 358.222 420.578 358.448L434.85 360.523C438.025 360.994 440.755 362.982 442.129 365.807L449.265 380.489C449.461 380.907 449.568 381.378 449.568 381.849V389.626C449.568 390.986 448.676 392.189 447.374 392.608L420.025 401.465C419.365 401.675 418.687 401.779 418.009 401.779H225.89Z" stroke="#96AFDA"/>
<g opacity="0.3">
<path d="M445.558 369.329C445.558 369.329 443.952 366.156 441.526 365.371C439.117 364.569 435.103 364.569 435.103 364.569L430.287 367.742L450.374 378.867L445.558 369.329Z" fill="#96AFDA"/>
</g>
<g opacity="0.3">
<path d="M208.551 370.137C208.551 370.137 217.381 369.335 221.413 369.335C225.427 369.335 227.033 369.422 226.23 370.974C225.427 372.509 219.79 377.286 217.381 378.071C214.973 378.873 210.156 378.873 210.156 378.873L208.551 370.137Z" fill="#96AFDA"/>
</g>
<path d="M276.048 364.572C290.498 355.557 301.738 349.733 309.784 347.1C321.826 343.125 344.322 342.323 364.41 345.496C377.147 347.519 386.603 352.227 392.74 359.638C392.847 359.76 392.918 359.917 392.918 360.074C392.954 360.51 392.615 360.876 392.169 360.911C387.388 361.224 375.72 361.399 357.184 361.399C336.294 361.399 309.248 362.445 276.048 364.572Z" stroke="#96AFDA" stroke-linecap="round" stroke-linejoin="round"/>
<path d="M276.048 364.572C290.498 355.557 301.738 349.733 309.784 347.1C321.826 343.125 344.322 342.323 364.41 345.496C377.147 347.519 386.603 352.227 392.74 359.638C392.847 359.76 392.918 359.917 392.918 360.074C392.954 360.51 392.615 360.876 392.169 360.911C387.388 361.224 375.72 361.399 357.184 361.399C336.294 361.399 309.248 362.445 276.048 364.572Z" fill="#333C4E"/>
<path d="M332.2 343.514L329.06 362.189" stroke="#96AFDA" stroke-linejoin="round"/>
<g opacity="0.4">
<path d="M261.575 397.3L377.267 394.754" stroke="#96AFDA" stroke-linecap="round" stroke-linejoin="round"/>
</g>
<g opacity="0.4">
<path d="M421.45 391.57L446.354 386.81" stroke="#96AFDA" stroke-linecap="round" stroke-linejoin="round"/>
</g>
<path d="M240.692 409.8C250.45 409.8 258.353 401.989 258.353 392.329C258.353 382.686 250.45 374.857 240.692 374.857C230.933 374.857 223.012 382.686 223.012 392.329C223.012 401.989 230.933 409.8 240.692 409.8Z" fill="#272E3E"/>
<path d="M240.692 409.8C250.45 409.8 258.353 401.989 258.353 392.329C258.353 382.686 250.45 374.857 240.692 374.857C230.933 374.857 223.012 382.686 223.012 392.329C223.012 401.989 230.933 409.8 240.692 409.8Z" stroke="#96AFDA"/>
<path d="M240.679 401.858C246.014 401.858 250.331 397.603 250.331 392.337C250.331 387.071 246.014 382.799 240.679 382.799C235.363 382.799 231.046 387.071 231.046 392.337C231.046 397.603 235.363 401.858 240.679 401.858Z" fill="#96AFDA"/>
<path d="M399.763 409.8C409.522 409.8 417.425 401.989 417.425 392.329C417.425 382.686 409.522 374.857 399.763 374.857C390.005 374.857 382.084 382.686 382.084 392.329C382.084 401.989 390.005 409.8 399.763 409.8Z" fill="#272E3E"/>
<path d="M399.763 409.8C409.522 409.8 417.425 401.989 417.425 392.329C417.425 382.686 409.522 374.857 399.763 374.857C390.005 374.857 382.084 382.686 382.084 392.329C382.084 401.989 390.005 409.8 399.763 409.8Z" stroke="#96AFDA"/>
<path d="M399.751 401.858C405.085 401.858 409.402 397.603 409.402 392.337C409.402 387.071 405.085 382.799 399.751 382.799C394.434 382.799 390.117 387.071 390.117 392.337C390.117 397.603 394.434 401.858 399.751 401.858Z" fill="#96AFDA"/>
</g>
<defs>
<clipPath id="clip0_35_1056">
<rect width="669" height="415" fill="white"/>
</clipPath>
</defs>
</svg>
