<svg width="800" height="800" viewBox="0 0 800 800" fill="none" xmlns="http://www.w3.org/2000/svg">
<path d="M531.406 187.447L485.284 172.6L492.638 149.953C493.058 148.662 494.446 147.955 495.743 148.372L537.167 161.708C538.464 162.126 539.175 163.51 538.756 164.801L531.406 187.447Z" fill="#4A4B6B"/>
<path d="M528.644 158.864L504.654 151.12L510.747 132.296L534.737 140.041L528.644 158.864Z" fill="#D6D1EB"/>
<path d="M468.962 168.937L439.046 184.187L431.496 169.475C431.068 168.636 431.399 167.609 432.241 167.181L459.113 153.484C459.953 153.054 460.985 153.386 461.414 154.226L468.962 168.937Z" fill="#4A4B6B"/>
<path d="M450.851 142.024L428.351 153.52C427.119 154.15 425.608 153.662 424.978 152.431L415.601 134.109C414.971 132.877 415.458 131.37 416.691 130.738L439.19 119.244C440.422 118.616 441.933 119.104 442.563 120.334L451.939 138.655C452.571 139.887 452.081 141.395 450.851 142.024Z" fill="#FFA101"/>
<path d="M453.564 156.236L437.998 164.186L431.741 151.965L447.305 144.015L453.564 156.236Z" fill="#D6D1EB"/>
<path d="M568.785 269.498C554.236 314.512 505.952 339.204 460.943 324.647C415.933 310.09 391.24 261.799 405.789 216.785C420.338 171.77 468.62 147.078 513.631 161.635C558.64 176.192 583.333 224.484 568.785 269.498Z" fill="#4A4B6B"/>
<path d="M553.217 264.463C541.446 300.877 502.388 320.852 465.975 309.075C429.563 297.3 409.589 258.233 421.358 221.817C433.128 185.402 472.187 165.429 508.599 177.205C545.011 188.982 564.988 228.048 553.217 264.463Z" fill="white"/>
<path d="M505.679 187.506L487.722 243.259L543.26 261.292C553.177 230.5 536.352 197.465 505.679 187.506Z" fill="#FFD300"/>
<path d="M492.028 233.347L530.407 241.648L491.965 249.758C486.717 250.864 481.789 246.87 481.809 241.527C481.83 236.185 486.79 232.213 492.028 233.347Z" fill="#4A4B6B"/>
<path d="M540.362 141.609L505.689 130.41C503.792 129.797 502.75 127.762 503.362 125.865L512.495 97.6452C513.108 95.7482 515.145 94.7097 517.045 95.324L551.719 106.52C553.617 107.134 554.659 109.169 554.045 111.066L544.912 139.285C544.299 141.182 542.262 142.222 540.362 141.609Z" fill="#FFD300"/>
<g opacity="0.980984">
<path d="M402.747 588.746L203.655 628.782C185.911 632.351 168.66 620.737 165.118 602.843L82.312 184.305C78.7703 166.41 90.2843 149.011 108.027 145.443L307.12 105.408C324.862 101.838 342.116 113.453 345.657 131.347L428.463 549.886C432.003 567.778 420.491 585.179 402.747 588.746Z" fill="#4A4B6B"/>
<path d="M272.909 135.477L273.821 140.085C275.399 148.067 270.266 155.827 262.356 157.417L169.207 176.16C161.297 177.751 153.606 172.571 152.027 164.589L151.117 159.982L111.786 167.894C104.125 169.436 99.1537 176.952 100.682 184.684L181.897 595.416C183.425 603.148 190.876 608.167 198.536 606.625L398.989 566.296C406.652 564.755 411.623 557.236 410.094 549.506L328.88 138.774C327.35 131.042 319.901 126.024 312.239 127.567L272.909 135.477Z" fill="white"/>
<path d="M371.169 486.892C368.404 472.968 354.207 464.261 340.346 468.657C330.024 471.932 323.078 482.051 323.714 492.908C324.097 499.461 326.956 505.07 331.206 509.099L331.194 509.11L349.348 526.543C352.503 529.573 357.695 528.533 359.449 524.519L369.55 501.423L369.535 501.417C371.496 497.012 372.182 491.985 371.169 486.892Z" fill="#79D2FD"/>
<path d="M361.353 488.836C359.85 481.308 352.527 476.419 344.997 477.922C337.47 479.425 332.587 486.746 334.091 494.278C335.594 501.807 342.914 506.696 350.443 505.192C357.972 503.689 362.858 496.367 361.353 488.836Z" fill="white"/>
<path d="M181.088 308.806L186.927 307.698" stroke="#78779F" stroke-width="1.867" stroke-miterlimit="10" stroke-linecap="round"/>
<path d="M186.84 309.214L289.763 288.549C306.574 285.173 322.922 296.157 326.277 313.083C329.632 330.01 318.724 346.466 301.913 349.842L191.801 371.953C176.432 375.038 166.458 390.084 169.527 405.562C172.593 421.036 187.539 431.079 202.91 427.992L320.414 404.398C333.142 401.843 345.52 410.16 348.06 422.975C350.6 435.791 342.341 448.252 329.614 450.807L246.025 467.59C222.491 472.316 207.219 495.357 211.917 519.052C216.615 542.75 239.5 558.129 263.036 553.401L359.567 534.021" stroke="#78779F" stroke-width="1.867" stroke-miterlimit="10" stroke-linecap="round"/>
</g>
<g opacity="0.980984">
<path d="M190.35 261.283C187.582 247.359 173.387 238.652 159.526 243.048C149.203 246.322 142.258 256.443 142.894 267.3C143.277 273.851 146.136 279.46 150.388 283.489L150.375 283.5L168.53 300.935C171.683 303.963 176.875 302.923 178.631 298.91L188.732 275.815L188.715 275.807C190.676 271.403 191.362 266.375 190.35 261.283Z" fill="#FFD300"/>
<path d="M180.533 263.225C179.029 255.695 171.706 250.809 164.177 252.311C156.65 253.814 151.765 261.134 153.268 268.667C154.773 276.195 162.094 281.083 169.623 279.581C177.152 278.078 182.038 270.756 180.533 263.225Z" fill="white"/>
</g>
<path d="M403.511 325.584L399.173 343.291C399.173 343.291 365.496 333.265 365.192 332.383C364.891 331.502 364.989 308.235 364.989 308.235L403.511 325.584Z" fill="#FF9760"/>
<path d="M376.621 466.246L331.751 466.618C323.599 466.685 317.048 473.301 317.116 481.395L317.24 496.051L376.869 495.557C385.022 495.49 391.574 488.874 391.505 480.78C391.437 472.686 384.775 466.179 376.621 466.246Z" fill="#2C2C3D"/>
<path d="M617.582 636.841C617.879 672.35 589.334 701.375 553.828 701.671C518.319 701.968 489.293 673.425 488.995 637.916C488.698 602.407 517.241 573.382 552.749 573.085C588.256 572.788 617.284 601.332 617.582 636.841Z" fill="#4A4B6B"/>
<path d="M593.043 637.046C593.227 659.002 575.577 676.95 553.622 677.134C531.666 677.317 513.72 659.667 513.536 637.711C513.352 615.754 531 597.806 552.955 597.623C574.911 597.439 592.859 615.09 593.043 637.046Z" fill="white"/>
<path d="M331.283 638.244C331.58 673.753 303.037 702.777 267.53 703.074C232.022 703.371 202.994 674.828 202.696 639.319C202.399 603.809 230.944 574.785 266.452 574.488C301.959 574.191 330.985 602.734 331.283 638.244Z" fill="#4A4B6B"/>
<path d="M306.746 638.449C306.93 660.405 289.279 678.353 267.323 678.537C245.367 678.72 227.421 661.07 227.237 639.113C227.053 617.157 244.701 599.209 266.656 599.026C288.612 598.842 306.562 616.493 306.746 638.449Z" fill="white"/>
<path d="M530.834 547.682L506.514 547.885L506.881 591.529L561.797 591.071L556.04 568.27C552.951 556.041 542.596 547.583 530.834 547.682Z" fill="#FFA101"/>
<path d="M552.892 560.375L541.493 549.535L511.566 429.62L495.558 429.754L527.754 567.194L552.892 560.375Z" fill="#FFA101"/>
<path d="M617.486 602.499C617.486 602.499 603.187 560.36 556.217 560.751L515.446 571.775L495.784 592.813C478.481 611.327 478.6 617.081 476.572 637.805C476.572 637.805 553.02 651.059 562.508 643.782L617.486 602.499Z" fill="#1B3B72"/>
<path d="M562.426 643.788L586.266 625.94C579.112 613.403 566.14 597.637 546.766 599.702C515.127 603.077 492.85 621.955 476.436 637.824C476.436 637.824 552.935 651.047 562.426 643.788Z" fill="#FFD300"/>
<path d="M391.307 516.268C391.212 504.899 381.89 495.761 370.488 495.856L356.86 495.969L330.967 496.185L282.376 496.59C221.496 497.097 172.558 546.713 173.069 607.409L173.184 621.083C173.268 631.113 181.489 639.173 191.548 639.089L358.053 637.702L357.558 578.923C357.479 569.487 365.087 561.772 374.552 561.694C384.015 561.615 391.624 553.902 391.545 544.467L391.307 516.268Z" fill="#1B3B72"/>
<path d="M345.622 637.859L188.74 639.167L188.189 573.667C187.987 549.733 207.274 530.169 231.269 529.969L301.262 529.385C325.255 529.185 344.87 548.424 345.071 572.359L345.622 637.859Z" fill="#FFD300"/>
<path d="M457.419 606.807L345.47 607.726L345.73 638.394L457.678 637.476L457.419 606.807Z" fill="#1B3B72"/>
<path d="M457.932 637.77L527.302 567.227L505.249 545.538L435.878 616.081L457.932 637.77Z" fill="#1B3B72"/>
<path d="M457.932 637.82L527.304 567.276L519.596 559.696L450.224 630.24L457.932 637.82Z" fill="#FFD300"/>
<path d="M330.713 449.102C330.713 449.102 331.958 487.091 369.947 486.773L432.954 486.247C432.954 486.247 428.403 496.017 424.82 510.875C421.239 525.735 403.754 600.958 403.754 600.958L435.72 600.69C435.72 600.69 480.175 481.682 479.598 468.247C479.023 454.813 403.913 448.49 403.913 448.49L330.713 449.102Z" fill="#4A4B6B"/>
<path d="M527.415 567.14L495.235 429.669C469.456 435.792 453.577 461.911 459.877 487.827L488.776 606.697L527.415 567.14Z" fill="#FFD300"/>
<path d="M457.549 622.327L345.546 623.222L345.675 638.394L457.678 637.499L457.549 622.327Z" fill="#FFD300"/>
<path d="M531.096 429.157L478.064 429.599C470.286 429.664 463.926 423.425 463.86 415.663L463.759 403.631C463.716 398.465 466.243 393.615 470.504 390.683L478 385.524C482.779 382.235 488.438 380.45 494.246 380.402L530.684 380.098L531.096 429.157Z" fill="#FFD300"/>
<path d="M531.098 429.321L511.862 429.482L511.455 380.259L530.691 380.098L531.098 429.321Z" fill="#D6D1EB"/>
<path d="M464.118 434.248L480.023 418.073C482.989 415.057 482.949 410.208 479.932 407.242C476.916 404.275 472.066 404.316 469.1 407.332L453.194 423.507C450.228 426.523 450.269 431.372 453.285 434.338C456.301 437.305 461.151 437.264 464.118 434.248Z" fill="#4A4B6B"/>
<path d="M463.971 423.416C466.987 426.383 467.028 431.233 464.062 434.249C461.096 437.266 456.245 437.306 453.229 434.34C450.213 431.374 450.172 426.523 453.138 423.507C456.104 420.491 460.955 420.45 463.971 423.416Z" fill="#2C2C3D"/>
<path d="M333.04 448.546L404.173 447.95L403.334 347.448C403.205 331.984 386.442 326.973 366.55 327.139C346.659 327.306 338.945 355.448 334.231 381.755C331.146 398.961 326.197 422.278 323.142 436.351C321.771 442.663 326.6 448.6 333.04 448.546Z" fill="#FFD300"/>
<path d="M399.32 396.612L386.865 351.517C384.52 343.023 375.659 338.11 367.213 340.618C358.865 343.098 354.117 351.88 356.614 360.223L368.977 401.508C371.777 410.864 379.585 417.861 389.19 419.622L443.613 429.604L446.667 406.875L399.32 396.612Z" fill="#1B3B72"/>
<path d="M446.761 407.189L455.242 402.198C459.512 399.687 464.611 398.999 469.395 400.283C474.452 401.642 478.159 405.954 478.745 411.153C479.408 417.038 477.694 422.945 473.98 427.558L472.861 428.948C469.709 432.865 464.18 433.921 459.804 431.443L456.908 429.805L443.708 429.915L446.761 407.189Z" fill="#FF9760"/>
<path d="M403.15 601.411L396.209 622.63L464.634 622.066C465.47 615.158 461.139 608.663 454.397 606.708L435.196 601.147L403.15 601.411Z" fill="#FFA101"/>
<path d="M289.841 582.409L232.84 582.859C230.878 582.874 229.275 581.34 229.259 579.429C229.242 577.519 230.819 575.959 232.781 575.944L289.782 575.494C291.746 575.478 293.349 577.013 293.365 578.923C293.381 580.833 291.805 582.393 289.841 582.409Z" fill="#4A4B6B"/>
<path d="M289.894 593.308L232.894 593.758C230.931 593.773 229.328 592.239 229.312 590.328C229.296 588.418 230.872 586.858 232.835 586.843L289.835 586.393C291.799 586.377 293.402 587.912 293.418 589.822C293.435 591.732 291.858 593.292 289.894 593.308Z" fill="#4A4B6B"/>
<path d="M289.947 604.207L232.947 604.657C230.985 604.673 229.382 603.136 229.365 601.226C229.349 599.316 230.926 597.754 232.888 597.739L289.889 597.289C291.853 597.273 293.456 598.81 293.472 600.72C293.488 602.63 291.912 604.191 289.947 604.207Z" fill="#4A4B6B"/>
<path d="M290.001 615.103L233.001 615.553C231.038 615.569 229.435 614.034 229.419 612.122C229.403 610.213 230.979 608.653 232.942 608.638L289.942 608.188C291.906 608.172 293.509 609.707 293.525 611.616C293.542 613.527 291.965 615.087 290.001 615.103Z" fill="#4A4B6B"/>
<path d="M429.243 290.708C429.243 290.708 428.506 294.566 427.377 299.902C425.085 310.736 421.173 327.665 418.502 330.787C414.516 335.447 386.696 323.983 386.696 323.983L394.137 283.045L429.243 290.708Z" fill="#FF9760"/>
<path d="M429.241 309.112L427.477 301.308L401.171 307.5L388.405 314.856L386.701 324.041C386.701 324.041 414.737 335.404 418.757 330.789C420.89 328.339 426.967 318.93 429.241 309.112Z" fill="#F4FF6F"/>
<path d="M378.335 322.512C378.335 322.512 362.704 316.424 356.874 298.588C351.044 280.756 364.915 254.599 385.354 248.327C405.794 242.056 427.221 247.499 433.844 262.327C439.437 274.85 435.235 287.36 430.495 289.953C425.755 292.547 401.552 289.708 401.552 289.708C401.552 289.708 404.403 331.5 378.335 322.512Z" fill="#1B3B72"/>
<path d="M423.2 290.752C422.662 286.021 420.976 277.228 416.57 272.404C407.505 262.477 387.027 261.33 387.027 261.33L390.511 267.232C390.511 267.232 381.854 262.658 369.096 271.171C356.338 279.686 357.557 292.503 357.557 292.503C357.557 292.503 364.564 279.481 374.383 277.034C384.203 274.587 397.171 283.029 397.171 283.029L396.339 273.553C396.339 273.553 405.499 276.392 408.932 290.178C413.283 290.524 418.733 290.842 423.2 290.752Z" fill="#FFD300"/>
<g opacity="0.985952">
<path d="M243.111 703.606C243.111 703.606 228.17 669.277 217.321 667.362C206.472 665.448 204.549 675.84 204.549 675.84C204.549 675.84 190.657 655.211 171.474 662.172C152.289 669.135 159.272 687.27 159.272 687.27C159.272 687.27 145.933 689.296 143.524 696.426C141.116 703.554 154.422 704.014 154.422 704.014L243.111 703.606Z" fill="#E9E4F6"/>
</g>
</svg>
