<svg width="123" height="33" viewBox="0 0 123 33" fill="none" xmlns="http://www.w3.org/2000/svg">
<rect width="123" height="33" fill="white"/>
<path d="M22.8148 22L24.2398 12.895H21.2098L21.5248 10.9H29.8348L29.5198 12.895H26.4748L25.0348 22H22.8148ZM30.9954 22L32.7504 10.9H36.9954C37.8954 10.9 38.6204 11.11 39.1704 11.53C39.7204 11.94 39.9954 12.65 39.9954 13.66C39.9954 13.94 39.9654 14.26 39.9054 14.62C39.8254 15.15 39.7004 15.59 39.5304 15.94C39.3604 16.29 39.1654 16.57 38.9454 16.78C38.7254 16.99 38.5054 17.155 38.2854 17.275C38.0654 17.385 37.8754 17.47 37.7154 17.53L39.0654 22H36.8004L35.6754 17.875C35.4354 17.875 35.1404 17.875 34.7904 17.875C34.4404 17.865 34.1354 17.86 33.8754 17.86L33.2154 22H30.9954ZM34.1454 16.105H36.0204C36.5104 16.105 36.8854 15.99 37.1454 15.76C37.4054 15.52 37.5804 15.09 37.6704 14.47C37.6904 14.38 37.7004 14.295 37.7004 14.215C37.7104 14.125 37.7154 14.045 37.7154 13.975C37.7154 13.575 37.6104 13.295 37.4004 13.135C37.1904 12.975 36.9054 12.895 36.5454 12.895H34.6554L34.1454 16.105ZM41.4026 22L46.6826 10.9H49.4726L51.1826 22H48.8726L48.5576 19.675H44.7626L43.6826 22H41.4026ZM45.6026 17.68H48.3326L47.7626 12.82L45.6026 17.68ZM53.932 22L55.687 10.9H57.472L60.952 18.22L62.122 10.9H64.342L62.572 22H60.802L57.322 14.665L56.152 22H53.932ZM69.4923 22.09C68.7123 22.09 68.0023 22.055 67.3623 21.985C66.7323 21.905 66.2223 21.82 65.8323 21.73L66.1023 19.975C66.5523 20.015 67.0773 20.045 67.6773 20.065C68.2873 20.085 68.8773 20.095 69.4473 20.095C70.0873 20.095 70.5623 20.02 70.8723 19.87C71.1923 19.72 71.3873 19.43 71.4573 19L71.5173 18.61C71.5273 18.55 71.5323 18.5 71.5323 18.46C71.5423 18.41 71.5473 18.36 71.5473 18.31C71.5473 18.03 71.4473 17.83 71.2473 17.71C71.0473 17.59 70.7273 17.53 70.2873 17.53H69.4023C68.5623 17.53 67.9073 17.32 67.4373 16.9C66.9773 16.47 66.7473 15.9 66.7473 15.19C66.7473 14.99 66.7623 14.78 66.7923 14.56L66.9423 13.66C67.1023 12.6 67.5273 11.86 68.2173 11.44C68.9073 11.02 69.8023 10.81 70.9023 10.81C71.3823 10.81 71.9273 10.845 72.5373 10.915C73.1573 10.975 73.7423 11.065 74.2923 11.185L74.0073 12.94C73.6573 12.91 73.2773 12.885 72.8673 12.865C72.4573 12.845 72.0573 12.835 71.6673 12.835C71.2773 12.825 70.9323 12.82 70.6323 12.82C70.1823 12.82 69.8173 12.895 69.5373 13.045C69.2573 13.195 69.0823 13.485 69.0123 13.915L68.9523 14.305C68.9423 14.365 68.9323 14.425 68.9223 14.485C68.9223 14.535 68.9223 14.585 68.9223 14.635C68.9223 14.915 69.0023 15.12 69.1623 15.25C69.3223 15.37 69.5773 15.43 69.9273 15.43H70.8723C71.8023 15.43 72.5073 15.645 72.9873 16.075C73.4673 16.505 73.7073 17.07 73.7073 17.77C73.7073 17.95 73.6923 18.15 73.6623 18.37L73.5123 19.405C73.3623 20.335 72.9823 21.015 72.3723 21.445C71.7623 21.875 70.8023 22.09 69.4923 22.09ZM75.931 22L77.686 10.9H79.906L78.151 22H75.931ZM83.9779 22L85.4029 12.895H82.3729L82.6879 10.9H90.9979L90.6829 12.895H87.6379L86.1979 22H83.9779ZM94.712 22.09C94.442 22.09 94.152 22.06 93.842 22C93.542 21.93 93.267 21.81 93.017 21.64C92.767 21.46 92.577 21.205 92.447 20.875C92.317 20.545 92.297 20.115 92.387 19.585L93.362 13.45C93.462 12.81 93.652 12.305 93.932 11.935C94.222 11.555 94.572 11.29 94.982 11.14C95.392 10.98 95.842 10.9 96.332 10.9C97.082 10.9 97.827 10.92 98.567 10.96C99.317 10.99 100.082 11.035 100.862 11.095L100.562 12.955H96.647C96.287 12.955 96.017 13.04 95.837 13.21C95.667 13.38 95.552 13.645 95.492 14.005L95.267 15.445L99.422 15.58L99.137 17.335L94.952 17.455L94.712 19C94.652 19.37 94.697 19.63 94.847 19.78C95.007 19.93 95.257 20.005 95.597 20.005H99.452L99.167 21.865C98.457 21.925 97.737 21.975 97.007 22.015C96.277 22.065 95.512 22.09 94.712 22.09ZM102.418 22L104.173 10.9H106.393L104.638 22H102.418Z" fill="black"/>
</svg>
